# xmcd
#
# Track frame offsets:
#	150
#	14227
#	25816
#	39665
#	52706
#	65656
#	79818
#	96127
#	106491
#	122267
#	139871
#	157969
#	176546
#	188235
#	204517
#	219524
#	234464
#	257020
#
# Disc length: 3442 seconds
#
# Revision: 1
# Processed by: cddbd v1.5.2PL0 Copyright (c) Steve Scherf et al.
# Submitted via: audiograbber 1.83.01
#
DISCID=f30d7012
DTITLE=Chartbusters - Country 500 Vol.1 d.9 8532-9
DYEAR=1900
DGENRE=karaoke
TTITLE0=Conway Twitty - Linda on my mind
TTITLE1=Linda Ronstadt - Silver Threads and Golden Needles
TTITLE2=George Jones - The grand tour
TTITLE3=Freddy Fender - Before the next teardrop falls
TTITLE4=Dolly Parton - I will always love you
TTITLE5=Glen Cambell - Rhinestone Cowboy
TTITLE6=Melba Montgomery - No charge
TTITLE7=Tom T. Hall - I love
TTITLE8=Freddy Fender - Wasted Days and Wasted Nights
TTITLE9=Billie Jo Spears - Blanket on the ground
TTITLE10=C. W. McCall - Convoy
TTITLE11=The Charlie Daniels Band - South's gonna do it
TTITLE12=Willie Nelson - Blue Eyes Crying in the Rain
TTITLE13=Jessi Colton - I'm not Lisa
TTITLE14=The Bellamy Brothers - Let Your Love Flow
TTITLE15=George Jones and Tammy Wynette - Golden Ring
TTITLE16=The Statler Brothers - Do You Know You Are My Sunshine
TTITLE17=data - Track
EXTD=
EXTT0=
EXTT1=
EXTT2=
EXTT3=
EXTT4=
EXTT5=
EXTT6=
EXTT7=
EXTT8=
EXTT9=
EXTT10=
EXTT11=
EXTT12=
EXTT13=
EXTT14=
EXTT15=
EXTT16=
EXTT17=
PLAYORDER=
